<svg width="61" height="61" viewBox="0 0 61 61" fill="none" xmlns="http://www.w3.org/2000/svg">
<path d="M31.2332 37.3375L56.1314 10.0091C56.8753 9.19257 58.1403 9.13372 58.9568 9.87764L59.4648 10.3404C60.2812 11.0843 60.3401 12.3493 59.5962 13.1658L32.8496 42.5232C32.0945 43.352 30.8057 43.3983 29.9932 42.6258L16.8581 30.1393C16.0575 29.3782 16.0255 28.1122 16.7866 27.3117L17.2604 26.8133C18.0215 26.0128 19.2874 25.9808 20.0879 26.7419L31.2332 37.3375ZM60.0901 23.7183C59.7296 22.2611 57.9161 21.8977 56.9068 23.009L56.1956 23.7921C55.7416 24.292 55.5761 24.9861 55.718 25.6463C56.0869 27.363 56.2812 29.1436 56.2812 30.9688C56.2812 44.9258 44.9258 56.2812 30.9688 56.2812C17.0117 56.2812 5.65625 44.9258 5.65625 30.9688C5.65625 17.0117 17.0117 5.65625 30.9688 5.65625C36.7231 5.65625 42.0343 7.58744 46.2907 10.8344C47.164 11.5006 48.4155 11.4422 49.1539 10.6291L49.6274 10.1078C50.3731 9.28674 50.312 8.00973 49.4393 7.32514C44.1862 3.20446 37.7495 0.96875 30.9688 0.96875C22.9557 0.96875 15.4216 4.08923 9.75562 9.75562C4.08923 15.4216 0.96875 22.9557 0.96875 30.9688C0.96875 38.9818 4.08923 46.5159 9.75562 52.1819C15.4216 57.8483 22.9557 60.9688 30.9688 60.9688C38.9818 60.9688 46.5159 57.8483 52.1819 52.1819C57.8483 46.5159 60.9688 38.9818 60.9688 30.9688C60.9688 28.4922 60.6698 26.0619 60.0901 23.7183Z" fill="#26AD5C"/>
</svg>
