<svg width="243" height="106" viewBox="0 0 243 106" fill="none" xmlns="http://www.w3.org/2000/svg">
<path d="M234.037 83.3494H235.825V96.1469H234.037V83.3494ZM238.565 94.4845C239.477 94.4845 240.143 94.3154 240.558 93.9654C240.978 93.6213 241.183 93.1313 241.183 92.5072V92.478C241.183 92.0464 241.107 91.673 240.961 91.3581C240.809 91.0489 240.575 90.8098 240.248 90.6406C239.921 90.4773 239.512 90.3898 239.004 90.3898H235.089V88.7682H239.004C239.664 88.7682 240.166 88.6107 240.505 88.3016C240.844 87.9866 241.013 87.5316 241.013 86.9192C241.013 86.2775 240.826 85.7992 240.447 85.4843C240.073 85.1693 239.506 85.0118 238.752 85.0118H235.083V83.3494H239.08C239.909 83.3494 240.604 83.4894 241.16 83.7752C241.72 84.0552 242.135 84.4518 242.416 84.971C242.69 85.4901 242.831 86.1026 242.831 86.82C242.831 87.2575 242.749 87.6716 242.573 88.0566C242.404 88.4416 242.141 88.7682 241.796 89.0424C241.446 89.3165 241.013 89.4973 240.493 89.5907C241.013 89.6665 241.457 89.8531 241.831 90.139C242.205 90.4306 242.498 90.7923 242.696 91.2239C242.901 91.6614 243 92.128 243 92.6355V92.6646C243 93.3529 242.848 93.9654 242.538 94.4962C242.235 95.027 241.796 95.4353 241.224 95.7211C240.657 96.007 239.991 96.1528 239.231 96.1528H235.089V94.4845H238.565ZM209.235 96.2811C208.288 96.2811 207.476 96.0944 206.804 95.7211C206.132 95.3478 205.618 94.8054 205.267 94.0937C204.911 93.3821 204.736 92.5247 204.736 91.5214V83.3494H206.535V91.5797C206.535 92.513 206.775 93.2363 207.242 93.7438C207.71 94.2571 208.376 94.5079 209.235 94.5079C210.099 94.5079 210.765 94.2512 211.239 93.7438C211.712 93.2305 211.951 92.513 211.951 91.5797V83.3494H213.751V91.5214C213.751 92.5247 213.576 93.3821 213.219 94.0937C212.869 94.8054 212.355 95.3478 211.677 95.7211C210.999 96.0944 210.187 96.2811 209.235 96.2811ZM176.31 88.9899H183.427V90.6989H176.31V88.9899ZM175.189 83.3494H176.988V96.1469H175.189V83.3494ZM182.475 83.3494H184.274V96.1469H182.475V83.3494ZM142.416 83.3494H151.461V85.0584H142.416V83.3494ZM146.039 84.3993H147.838V96.1528H146.039V84.3993ZM122.831 96.1469H121.032V83.3494H122.831V96.1469Z" fill="white"/>
<path d="M223.795 40.9728L236.193 59.72V40.792C236.193 39.5612 236.462 38.6454 236.988 38.033C237.514 37.4205 238.226 37.1055 239.126 37.1055C240.044 37.1055 240.78 37.4088 241.311 38.0213C241.843 38.6338 242.112 39.5612 242.112 40.792V65.7921C242.112 68.5861 240.955 69.9744 238.641 69.9744C238.063 69.9744 237.543 69.8927 237.075 69.7235C236.614 69.5602 236.176 69.2919 235.778 68.9361C235.369 68.5744 235.001 68.1486 234.651 67.6645C234.3 67.1804 233.955 66.6846 233.605 66.1829L221.51 47.6749V66.2879C221.51 67.5012 221.23 68.4228 220.663 69.0411C220.09 69.6652 219.366 69.9744 218.484 69.9744C217.572 69.9744 216.836 69.6652 216.287 69.0352C215.732 68.4053 215.457 67.4895 215.457 66.2879V41.7719C215.457 40.7278 215.574 39.9112 215.808 39.322C216.082 38.6687 216.544 38.1379 217.181 37.7238C217.818 37.3155 218.507 37.1113 219.243 37.1113C219.828 37.1113 220.324 37.2047 220.733 37.3913C221.148 37.5838 221.51 37.8346 221.826 38.1554C222.135 38.4763 222.457 38.8787 222.784 39.392C223.105 39.8937 223.444 40.4186 223.795 40.9728ZM203.31 53.4554C203.31 51.128 202.93 49.1098 202.182 47.4007C201.429 45.6975 200.354 44.4084 198.957 43.5276C197.561 42.6527 195.954 42.2152 194.143 42.2152C192.857 42.2152 191.665 42.4602 190.573 42.9385C189.474 43.4285 188.534 44.1284 187.745 45.0559C186.956 45.9833 186.337 47.1674 185.875 48.6023C185.425 50.0489 185.191 51.6588 185.191 53.4495C185.191 55.2636 185.419 56.891 185.875 58.3609C186.337 59.8191 186.979 61.0324 187.809 61.9948C188.639 62.9573 189.597 63.6747 190.672 64.1472C191.753 64.6313 192.933 64.8647 194.224 64.8647C195.878 64.8647 197.391 64.4505 198.776 63.6281C200.155 62.8056 201.253 61.534 202.077 59.8075C202.901 58.0984 203.31 55.9694 203.31 53.4554ZM194.143 37.1055C197.45 37.1055 200.283 37.7705 202.65 39.1121C205.016 40.442 206.81 42.3494 208.025 44.8109C209.24 47.2782 209.848 50.1714 209.848 53.4962C209.848 55.9519 209.515 58.1917 208.849 60.1983C208.183 62.2107 207.19 63.9489 205.852 65.4246C204.519 66.9004 202.883 68.0261 200.944 68.8078C198.998 69.5835 196.784 69.9802 194.277 69.9802C191.788 69.9802 189.55 69.5777 187.587 68.7728C185.612 67.9736 183.976 66.842 182.656 65.3838C181.335 63.9255 180.342 62.1698 179.664 60.1108C178.992 58.0576 178.653 55.841 178.653 53.4554C178.653 51.0113 179.004 48.7773 179.705 46.7299C180.412 44.6942 181.423 42.9618 182.761 41.5269C184.087 40.0978 185.711 39.0012 187.628 38.2488C189.538 37.4847 191.712 37.1055 194.143 37.1055ZM171.438 42.6177H156.901V50.4339H170.286C171.274 50.4339 172.004 50.6555 172.489 51.093C172.98 51.5305 173.214 52.1138 173.214 52.8312C173.214 53.5487 172.974 54.1436 172.501 54.5928C172.022 55.0419 171.286 55.2752 170.281 55.2752H156.895V64.3397H171.928C172.945 64.3397 173.71 64.5788 174.219 65.0455C174.739 65.5121 174.996 66.1421 174.996 66.9179C174.996 67.6645 174.739 68.2828 174.219 68.7494C173.705 69.2161 172.945 69.4552 171.928 69.4552H154.394C152.992 69.4552 151.981 69.1461 151.368 68.5219C150.754 67.8978 150.439 66.8945 150.439 65.5063V41.5911C150.439 40.6636 150.579 39.9112 150.853 39.3279C151.128 38.7446 151.56 38.3129 152.145 38.0446C152.729 37.7763 153.477 37.6421 154.394 37.6421H171.432C172.46 37.6421 173.225 37.8696 173.722 38.3246C174.219 38.7854 174.47 39.3862 174.47 40.1153C174.47 40.8678 174.219 41.4802 173.722 41.9352C173.231 42.3844 172.466 42.6177 171.438 42.6177ZM120.868 62.0182L137.234 42.4777H123.17C122.183 42.4777 121.441 42.2619 120.944 41.8244C120.442 41.3869 120.196 40.8153 120.196 40.1095C120.196 39.3745 120.442 38.7796 120.944 38.3188C121.441 37.8696 122.183 37.6363 123.17 37.6363H141.295C143.638 37.6363 144.812 38.7329 144.812 40.9144C144.812 41.9585 144.619 42.7868 144.228 43.411C143.836 44.0351 143.047 45.0384 141.861 46.4324L126.559 64.6022H143.421C144.415 64.6022 145.163 64.8122 145.653 65.2263C146.15 65.6346 146.395 66.2121 146.395 66.9529C146.395 67.717 146.15 68.3236 145.653 68.7728C145.163 69.2219 144.415 69.4494 143.421 69.4494H122.732C121.33 69.4494 120.272 69.1286 119.565 68.5044C118.852 67.8745 118.496 67.0404 118.496 65.9788C118.496 65.6171 118.554 65.2846 118.665 64.9813C118.782 64.678 118.94 64.3864 119.133 64.1239C119.332 63.8556 119.6 63.5172 119.951 63.1089C120.301 62.689 120.605 62.3215 120.868 62.0182Z" fill="white"/>
<path fill-rule="evenodd" clip-rule="evenodd" d="M47.1438 30.6017C51.8064 35.2564 51.8064 42.7985 47.1438 47.4474C42.4813 52.1021 34.9266 52.1021 30.2699 47.4474C25.6073 42.7927 25.6073 35.2506 30.2699 30.6017C34.9324 25.947 42.4871 25.947 47.1438 30.6017Z" fill="white"/>
<path fill-rule="evenodd" clip-rule="evenodd" d="M74.8036 58.2092C79.4662 62.864 79.4662 70.406 74.8036 75.0549C70.1411 79.7096 62.5863 79.7096 57.9296 75.0549C53.2671 70.4002 53.2671 62.8581 57.9296 58.2092C62.5863 53.5603 70.1411 53.5603 74.8036 58.2092Z" fill="white"/>
<path fill-rule="evenodd" clip-rule="evenodd" d="M74.3712 30.7242C79.0338 35.3789 79.0338 42.921 74.3712 47.5699C69.7087 52.2246 62.154 52.2246 57.4973 47.5699C52.8347 42.9151 52.8347 35.3731 57.4973 30.7242C62.154 26.0753 69.7087 26.0753 74.3712 30.7242Z" fill="white"/>
<path fill-rule="evenodd" clip-rule="evenodd" d="M46.7173 58.3317C51.3799 62.9864 51.3799 70.5285 46.7173 75.1774C42.0548 79.8263 34.5 79.8321 29.8433 75.1774C25.1808 70.5227 25.1808 62.9806 29.8433 58.3317C34.5 53.6828 42.0548 53.6828 46.7173 58.3317Z" fill="white"/>
<path fill-rule="evenodd" clip-rule="evenodd" d="M17.7079 30.7009C21.6225 31.185 24.2343 36.0556 23.5506 41.5736C22.8612 47.0916 19.1335 51.1688 15.2188 50.6847C11.3042 50.2006 8.69243 45.33 9.37603 39.812C10.0655 34.294 13.7932 30.2109 17.7079 30.7009Z" fill="white"/>
<path fill-rule="evenodd" clip-rule="evenodd" d="M30.1121 87.8466C30.5971 83.9385 35.4758 81.3312 41.0031 82.0136C46.5303 82.7019 50.6145 86.4233 50.1295 90.3315C49.6446 94.2395 44.7658 96.8469 39.2385 96.1644C33.7113 95.482 29.6272 91.7547 30.1121 87.8466Z" fill="white"/>
<path fill-rule="evenodd" clip-rule="evenodd" d="M14.5936 55.3569C18.4849 54.6978 22.3879 58.6117 23.3228 64.0947C24.2518 69.5777 21.8562 74.5532 17.9649 75.2124C14.0736 75.8715 10.1707 71.9576 9.23581 66.4746C8.3068 60.9974 10.7023 56.016 14.5936 55.3569Z" fill="white"/>
<path fill-rule="evenodd" clip-rule="evenodd" d="M54.9965 90.7748C54.3363 86.89 58.2568 82.9936 63.749 82.0603C69.2413 81.1329 74.2252 83.5244 74.8854 87.4091C75.5456 91.2939 71.6251 95.1903 66.1329 96.1236C60.6465 97.0511 55.6568 94.6595 54.9965 90.7748Z" fill="white"/>
<path fill-rule="evenodd" clip-rule="evenodd" d="M4.70765 37.6946C6.55981 38.0738 7.5414 41.2236 6.89869 44.7292C6.25599 48.2348 4.24022 50.7722 2.38806 50.393C0.535893 50.0139 -0.445696 46.8641 0.197011 43.3585C0.839718 39.8528 2.85548 37.3155 4.70765 37.6946Z" fill="white"/>
<path fill-rule="evenodd" clip-rule="evenodd" d="M37.1819 100.767C37.5617 98.9176 40.7168 97.9377 44.2283 98.5793C47.7398 99.2209 50.2814 101.233 49.9016 103.082C49.5219 104.931 46.3667 105.911 42.8552 105.27C39.3437 104.628 36.8021 102.616 37.1819 100.767Z" fill="white"/>
<path fill-rule="evenodd" clip-rule="evenodd" d="M2.42896 55.7477C4.29281 55.4327 6.34363 58.0168 7.01555 61.5165C7.68747 65.0163 6.71757 68.1078 4.85372 68.4228C2.98987 68.7378 0.93905 66.1538 0.267129 62.654C-0.404792 59.1542 0.565111 56.0627 2.42896 55.7477Z" fill="white"/>
<path fill-rule="evenodd" clip-rule="evenodd" d="M55.1777 103.129C54.8622 101.268 57.4505 99.2209 60.9562 98.5501C64.4619 97.8794 67.5585 98.8476 67.8741 100.708C68.1896 102.569 65.6012 104.616 62.0955 105.287C58.5899 105.958 55.4932 104.99 55.1777 103.129Z" fill="white"/>
<path fill-rule="evenodd" clip-rule="evenodd" d="M13.7289 81.4828C15.2948 79.8263 19.1802 81.0279 22.4172 84.1602C25.6541 87.2983 27.0096 91.1772 25.4496 92.8338C23.8837 94.4904 19.9982 93.2888 16.7613 90.1565C13.5244 87.0242 12.1689 83.1394 13.7289 81.4828Z" fill="white"/>
<path fill-rule="evenodd" clip-rule="evenodd" d="M79.8518 93.0146C78.1924 91.4514 79.396 87.5725 82.5336 84.341C85.677 81.1095 89.5625 79.7563 91.2219 81.3137C92.8812 82.8769 91.6776 86.7558 88.54 89.9873C85.4024 93.2188 81.5111 94.572 79.8518 93.0146Z" fill="white"/>
<path fill-rule="evenodd" clip-rule="evenodd" d="M87.4416 75.1832C83.5269 74.7049 80.9035 69.8402 81.5813 64.3222C82.259 58.8042 85.9809 54.7153 89.8955 55.1936C93.8102 55.6719 96.4336 60.5366 95.7559 66.0546C95.0781 71.5726 91.3562 75.6615 87.4416 75.1832Z" fill="white"/>
<path fill-rule="evenodd" clip-rule="evenodd" d="M74.8328 18.1483C74.3537 22.0564 69.4808 24.6754 63.9535 23.9988C58.4263 23.3222 54.3305 19.6066 54.8096 15.6985C55.2887 11.7904 60.1616 9.17136 65.6889 9.84798C71.2161 10.5246 75.3119 14.2402 74.8328 18.1483Z" fill="white"/>
<path fill-rule="evenodd" clip-rule="evenodd" d="M90.3688 50.6555C86.4833 51.3205 82.5687 47.4182 81.628 41.9352C80.6873 36.4522 83.077 31.4708 86.9625 30.8059C90.8479 30.1409 94.7626 34.0432 95.7033 39.5262C96.644 45.0034 94.2601 49.9906 90.3688 50.6555Z" fill="white"/>
<path fill-rule="evenodd" clip-rule="evenodd" d="M50.1237 15.086C50.7897 18.9649 46.8809 22.873 41.3887 23.8121C35.8965 24.7513 30.9067 22.3656 30.2406 18.4866C29.5746 14.6077 33.4834 10.6996 38.9756 9.76049C44.4678 8.82138 49.4576 11.2012 50.1237 15.086Z" fill="white"/>
<path fill-rule="evenodd" clip-rule="evenodd" d="M100.196 68.3936C98.3442 68.0203 97.3568 64.8705 97.9878 61.3649C98.6188 57.8593 100.635 55.3161 102.487 55.6952C104.339 56.0685 105.326 59.2183 104.695 62.724C104.064 66.2296 102.049 68.7728 100.196 68.3936Z" fill="white"/>
<path fill-rule="evenodd" clip-rule="evenodd" d="M67.8039 5.1816C67.43 7.03066 64.2749 8.01643 60.7634 7.38647C57.2519 6.75651 54.7044 4.74413 55.0842 2.89507C55.4581 1.04602 58.6132 0.0602435 62.1248 0.690206C65.6363 1.32017 68.1779 3.33255 67.8039 5.1816Z" fill="white"/>
<path fill-rule="evenodd" clip-rule="evenodd" d="M102.569 50.2064C100.705 50.5214 98.648 47.9432 97.9703 44.4434C97.2925 40.9436 98.2566 37.8521 100.12 37.5313C101.984 37.2163 104.041 39.7945 104.719 43.2943C105.391 46.7999 104.432 49.8914 102.569 50.2064Z" fill="white"/>
<path fill-rule="evenodd" clip-rule="evenodd" d="M49.7088 2.94174C50.0243 4.80246 47.4418 6.85567 43.9361 7.53229C40.4305 8.20892 37.3338 7.24648 37.0124 5.38576C36.6969 3.52504 39.2794 1.47183 42.7851 0.7952C46.2966 0.124407 49.3933 1.08102 49.7088 2.94174Z" fill="white"/>
<path fill-rule="evenodd" clip-rule="evenodd" d="M80.9269 14.4035C82.4927 12.747 86.3782 13.9486 89.6151 17.0809C92.852 20.219 94.2075 24.098 92.6475 25.7545C91.0816 27.4111 87.1962 26.2095 83.9593 23.0772C80.7224 19.939 79.361 16.0601 80.9269 14.4035Z" fill="white"/>
<path fill-rule="evenodd" clip-rule="evenodd" d="M12.6597 25.9295C11.0003 24.3663 12.204 20.4873 15.3415 17.2559C18.485 14.0244 22.3704 12.6712 24.0298 14.2286C25.6891 15.7918 24.4855 19.6707 21.3479 22.9022C18.2045 26.1337 14.3132 27.4928 12.6597 25.9295Z" fill="white"/>
</svg>
