<svg width="17" height="12" viewBox="0 0 17 12" fill="none" xmlns="http://www.w3.org/2000/svg">
<mask id="path-1-inside-1_4491_1439" fill="white">
<path fill-rule="evenodd" clip-rule="evenodd" d="M2.60156 0.9375H15.3984C15.7153 0.937854 16.0192 1.0639 16.2433 1.28799C16.4673 1.51208 16.5934 1.8159 16.5938 2.13281V9.86719C16.5934 10.1841 16.4673 10.4879 16.2433 10.712C16.0192 10.9361 15.7153 11.0621 15.3984 11.0625H2.60156C2.28465 11.0621 1.98083 10.9361 1.75674 10.712C1.53265 10.4879 1.4066 10.1841 1.40625 9.86719V8.8125V8.25V6.5625V6V2.13281C1.4066 1.8159 1.53265 1.51208 1.75674 1.28799C1.98083 1.0639 2.28465 0.937854 2.60156 0.9375ZM15.3984 1.5H2.60156C2.55785 1.50003 2.51426 1.50459 2.47148 1.51361L8.40959 6.53824C8.57438 6.67839 8.78366 6.75535 9 6.75535C9.21634 6.75535 9.42562 6.67839 9.59041 6.53824L15.5285 1.51361C15.4857 1.50459 15.4422 1.50003 15.3984 1.5ZM1.96875 8.8125V9.86719C1.96877 9.95529 1.98733 10.0424 2.02321 10.1229L7.42999 6.44631L2.06831 1.9095C2.05344 1.89687 2.03992 1.88273 2.02795 1.86731C1.98904 1.95042 1.96884 2.04105 1.96875 2.13281V6V6.5625V7.125V7.6875V8.25V8.8125ZM2.48534 10.4888C2.52365 10.4961 2.56256 10.4999 2.60156 10.5H15.3984C15.4374 10.4999 15.4763 10.4961 15.5147 10.4888L10.1243 6.82336L9.95379 6.9675C9.68756 7.1939 9.34948 7.31822 9 7.31822C8.65052 7.31822 8.31244 7.1939 8.04621 6.9675L7.8757 6.82336L2.48534 10.4888ZM15.9768 10.1229C16.0127 10.0424 16.0312 9.95529 16.0312 9.86719V2.13281C16.0312 2.04316 16.0119 1.95456 15.9748 1.87297L10.57 6.44624L15.9768 10.1229Z"/>
</mask>
<path fill-rule="evenodd" clip-rule="evenodd" d="M2.60156 0.9375H15.3984C15.7153 0.937854 16.0192 1.0639 16.2433 1.28799C16.4673 1.51208 16.5934 1.8159 16.5938 2.13281V9.86719C16.5934 10.1841 16.4673 10.4879 16.2433 10.712C16.0192 10.9361 15.7153 11.0621 15.3984 11.0625H2.60156C2.28465 11.0621 1.98083 10.9361 1.75674 10.712C1.53265 10.4879 1.4066 10.1841 1.40625 9.86719V8.8125V8.25V6.5625V6V2.13281C1.4066 1.8159 1.53265 1.51208 1.75674 1.28799C1.98083 1.0639 2.28465 0.937854 2.60156 0.9375ZM15.3984 1.5H2.60156C2.55785 1.50003 2.51426 1.50459 2.47148 1.51361L8.40959 6.53824C8.57438 6.67839 8.78366 6.75535 9 6.75535C9.21634 6.75535 9.42562 6.67839 9.59041 6.53824L15.5285 1.51361C15.4857 1.50459 15.4422 1.50003 15.3984 1.5ZM1.96875 8.8125V9.86719C1.96877 9.95529 1.98733 10.0424 2.02321 10.1229L7.42999 6.44631L2.06831 1.9095C2.05344 1.89687 2.03992 1.88273 2.02795 1.86731C1.98904 1.95042 1.96884 2.04105 1.96875 2.13281V6V6.5625V7.125V7.6875V8.25V8.8125ZM2.48534 10.4888C2.52365 10.4961 2.56256 10.4999 2.60156 10.5H15.3984C15.4374 10.4999 15.4763 10.4961 15.5147 10.4888L10.1243 6.82336L9.95379 6.9675C9.68756 7.1939 9.34948 7.31822 9 7.31822C8.65052 7.31822 8.31244 7.1939 8.04621 6.9675L7.8757 6.82336L2.48534 10.4888ZM15.9768 10.1229C16.0127 10.0424 16.0312 9.95529 16.0312 9.86719V2.13281C16.0312 2.04316 16.0119 1.95456 15.9748 1.87297L10.57 6.44624L15.9768 10.1229Z" fill="#E6E6E6"/>
<path d="M-0.28125 6.28125L-1.28125 6.28125L-0.28125 6.28125ZM3.09375 6V5V6ZM1.40625 5H0V7H1.40625V5ZM0 5C-0.339807 5 -0.665698 5.13499 -0.905981 5.37527L0.508233 6.78948C0.37344 6.92428 0.190622 7 0 7V5ZM-0.905981 5.37527C-1.14626 5.61555 -1.28125 5.94144 -1.28125 6.28125L0.71875 6.28125C0.71875 6.47187 0.643025 6.65469 0.508233 6.78948L-0.905981 5.37527ZM-1.28125 6.28125C-1.28125 6.62106 -1.14626 6.94695 -0.905981 7.18723L0.508233 5.77302C0.643025 5.90781 0.71875 6.09063 0.71875 6.28125L-1.28125 6.28125ZM-0.905981 7.18723C-0.665698 7.42751 -0.339807 7.5625 0 7.5625V5.5625C0.190622 5.5625 0.37344 5.63822 0.508233 5.77302L-0.905981 7.18723ZM0 7.5625H1.40625V5.5625H0V7.5625ZM1.40625 7.25H0.84375V9.25H1.40625V7.25ZM0.84375 7.25C0.503943 7.25 0.178052 7.38499 -0.0622305 7.62527L1.35198 9.03948C1.21719 9.17428 1.03437 9.25 0.84375 9.25V7.25ZM-0.0622305 7.62527C-0.302512 7.86555 -0.4375 8.19144 -0.4375 8.53125H1.5625C1.5625 8.72187 1.48678 8.90469 1.35198 9.03948L-0.0622305 7.62527ZM-0.4375 8.53125C-0.4375 8.87106 -0.302512 9.19695 -0.0622305 9.43723L1.35198 8.02302C1.48678 8.15781 1.5625 8.34063 1.5625 8.53125H-0.4375ZM-0.0622305 9.43723C0.178052 9.67751 0.503943 9.8125 0.84375 9.8125V7.8125C1.03437 7.8125 1.21719 7.88822 1.35198 8.02302L-0.0622305 9.43723ZM0.84375 9.8125H1.40625V7.8125H0.84375V9.8125ZM1.96875 9.8125H2.53125V7.8125H1.96875V9.8125ZM2.53125 9.8125C2.87106 9.8125 3.19695 9.67751 3.43723 9.43723L2.02302 8.02302C2.15781 7.88822 2.34063 7.8125 2.53125 7.8125V9.8125ZM3.43723 9.43723C3.67751 9.19695 3.8125 8.87106 3.8125 8.53125H1.8125C1.8125 8.34063 1.88822 8.15781 2.02302 8.02302L3.43723 9.43723ZM3.8125 8.53125C3.8125 8.19144 3.67751 7.86555 3.43723 7.62527L2.02302 9.03948C1.88822 8.90469 1.8125 8.72187 1.8125 8.53125H3.8125ZM3.43723 7.62527C3.19695 7.38499 2.87106 7.25 2.53125 7.25V9.25C2.34063 9.25 2.15781 9.17428 2.02302 9.03948L3.43723 7.62527ZM2.53125 7.25H1.96875V9.25H2.53125V7.25ZM1.96875 8.6875H2.8125V6.6875H1.96875V8.6875ZM2.8125 8.6875C3.15231 8.6875 3.4782 8.55251 3.71848 8.31223L2.30427 6.89802C2.43906 6.76322 2.62188 6.6875 2.8125 6.6875V8.6875ZM3.71848 8.31223C3.95876 8.07195 4.09375 7.74606 4.09375 7.40625H2.09375C2.09375 7.21563 2.16947 7.03281 2.30427 6.89802L3.71848 8.31223ZM4.09375 7.40625C4.09375 7.06644 3.95876 6.74055 3.71848 6.50027L2.30427 7.91448C2.16947 7.77969 2.09375 7.59687 2.09375 7.40625H4.09375ZM3.71848 6.50027C3.4782 6.25999 3.15231 6.125 2.8125 6.125V8.125C2.62188 8.125 2.43906 8.04928 2.30427 7.91448L3.71848 6.50027ZM2.8125 6.125H1.96875V8.125H2.8125V6.125ZM1.96875 7.5625H3.09375V5.5625H1.96875V7.5625ZM3.09375 7.5625C3.43356 7.5625 3.75945 7.42751 3.99973 7.18723L2.58552 5.77302C2.72031 5.63822 2.90313 5.5625 3.09375 5.5625V7.5625ZM3.99973 7.18723C4.24001 6.94695 4.375 6.62106 4.375 6.28125H2.375C2.375 6.09063 2.45072 5.90781 2.58552 5.77302L3.99973 7.18723ZM4.375 6.28125C4.375 5.94144 4.24001 5.61555 3.99973 5.37527L2.58552 6.78948C2.45072 6.65469 2.375 6.47187 2.375 6.28125H4.375ZM3.99973 5.37527C3.75945 5.13499 3.43356 5 3.09375 5L3.09375 7C2.90313 7 2.72031 6.92428 2.58552 6.78948L3.99973 5.37527ZM3.09375 5H1.96875V7H3.09375V5ZM15.3984 0.9375L15.4007 -1.0625H15.3984V0.9375ZM2.60156 0.9375L2.60156 -1.0625L2.59933 -1.0625L2.60156 0.9375ZM1.40625 2.13281L-0.59375 2.13058V2.13281H1.40625ZM1.40625 9.86719L-0.593751 9.86719L-0.593749 9.86942L1.40625 9.86719ZM2.60156 11.0625L2.59933 13.0625H2.60156V11.0625ZM15.3984 11.0625L15.3984 13.0625L15.4007 13.0625L15.3984 11.0625ZM16.5938 9.86719L18.5938 9.86942V9.86719H16.5938ZM16.5938 2.13281L18.5938 2.13281L18.5937 2.13058L16.5938 2.13281ZM2.60156 1.5L2.60156 -0.5L2.60026 -0.5L2.60156 1.5ZM15.3984 1.5L15.3998 -0.5H15.3984V1.5ZM15.5285 1.51361L16.8204 3.04037L19.9411 0.399743L15.941 -0.443394L15.5285 1.51361ZM9.59041 6.53824L8.29851 5.01148L8.29473 5.01469L9.59041 6.53824ZM8.40959 6.53824L9.70527 5.01469L9.70148 5.01148L8.40959 6.53824ZM2.47148 1.51361L2.05891 -0.443378L-1.94094 0.399878L1.17959 3.04037L2.47148 1.51361ZM1.96875 9.86719L-0.0312501 9.86719L-0.0312499 9.86767L1.96875 9.86719ZM1.96875 2.13281L-0.03125 2.13096V2.13281H1.96875ZM2.02795 1.86731L3.6081 0.641282L1.60331 -1.94255L0.216637 1.01929L2.02795 1.86731ZM2.06831 1.9095L0.773527 3.43382L0.776427 3.43627L2.06831 1.9095ZM7.42999 6.44631L8.5546 8.10017L10.7314 6.61994L8.72188 4.91954L7.42999 6.44631ZM2.02321 10.1229L0.19658 10.9374L1.17043 13.1213L3.14782 11.7767L2.02321 10.1229ZM15.3984 10.5L15.3984 12.5L15.4056 12.5L15.3984 10.5ZM2.60156 10.5L2.5945 12.5H2.60156V10.5ZM2.48534 10.4888L1.36071 8.83497L-2.63183 11.5499L2.11104 12.4535L2.48534 10.4888ZM7.8757 6.82336L9.16688 5.29599L8.007 4.31548L6.75108 5.16951L7.8757 6.82336ZM8.04621 6.9675L9.34188 5.44393L9.33739 5.44013L8.04621 6.9675ZM9 7.31822L9 5.31822L9 7.31822ZM9.95379 6.9675L8.66261 5.44012L8.65812 5.44394L9.95379 6.9675ZM10.1243 6.82336L11.2489 5.16951L9.993 4.31548L8.83312 5.29599L10.1243 6.82336ZM15.5147 10.4888L15.8889 12.4535L20.6321 11.5501L16.6393 8.83497L15.5147 10.4888ZM16.0312 9.86719L18.0312 9.86767V9.86719H16.0312ZM15.9768 10.1229L14.8522 11.7767L16.8296 13.1214L17.8034 10.9374L15.9768 10.1229ZM10.57 6.44624L9.27812 4.91946L7.26858 6.61985L9.44538 8.10009L10.57 6.44624ZM15.9748 1.87297L17.7949 1.04401L16.6998 -1.36042L14.6829 0.346198L15.9748 1.87297ZM16.0312 2.13281L18.0313 2.13281L18.0312 2.1317L16.0312 2.13281ZM15.3984 -1.0625H2.60156V2.9375H15.3984V-1.0625ZM2.59933 -1.0625C1.75276 -1.06155 0.94114 -0.724839 0.342526 -0.126224L3.17095 2.7022C3.02051 2.85264 2.81654 2.93726 2.60379 2.9375L2.59933 -1.0625ZM0.342526 -0.126224C-0.256089 0.47239 -0.592804 1.28401 -0.593749 2.13058L3.40625 2.13504C3.40601 2.34779 3.32139 2.55176 3.17095 2.7022L0.342526 -0.126224ZM-0.59375 2.13281V6H3.40625V2.13281H-0.59375ZM-0.59375 6.5625V8.25H3.40625V6.5625H-0.59375ZM-0.59375 8.8125V9.86719H3.40625V8.8125H-0.59375ZM-0.593749 9.86942C-0.592804 10.716 -0.256088 11.5276 0.342526 12.1262L3.17095 9.2978C3.32139 9.44824 3.40601 9.6522 3.40625 9.86496L-0.593749 9.86942ZM0.342526 12.1262C0.941139 12.7248 1.75276 13.0616 2.59933 13.0625L2.60379 9.0625C2.81655 9.06274 3.02052 9.14736 3.17095 9.2978L0.342526 12.1262ZM2.60156 13.0625H15.3984V9.0625H2.60156V13.0625ZM15.4007 13.0625C16.2472 13.0616 17.0589 12.7248 17.6575 12.1262L14.829 9.2978C14.9795 9.14736 15.1835 9.06274 15.3962 9.0625L15.4007 13.0625ZM17.6575 12.1262C18.2561 11.5276 18.5928 10.716 18.5937 9.86942L14.5938 9.86496C14.594 9.6522 14.6786 9.44823 14.829 9.2978L17.6575 12.1262ZM18.5938 9.86719V2.13281H14.5938V9.86719H18.5938ZM18.5937 2.13058C18.5928 1.28401 18.2561 0.472389 17.6575 -0.126224L14.829 2.7022C14.6786 2.55177 14.594 2.3478 14.5938 2.13504L18.5937 2.13058ZM17.6575 -0.126224C17.0589 -0.724838 16.2472 -1.06155 15.4007 -1.0625L15.3962 2.9375C15.1835 2.93726 14.9795 2.85264 14.829 2.7022L17.6575 -0.126224ZM2.60156 3.5H15.3984V-0.5H2.60156V3.5ZM15.3971 3.5C15.3026 3.49993 15.2084 3.49008 15.116 3.4706L15.941 -0.443394C15.763 -0.480906 15.5817 -0.499874 15.3998 -0.5L15.3971 3.5ZM14.2366 -0.013156L8.29852 5.01148L10.8823 8.065L16.8204 3.04037L14.2366 -0.013156ZM8.29473 5.01469C8.49159 4.84728 8.74158 4.75535 9 4.75535V8.75535C9.69109 8.75535 10.3596 8.50951 10.8861 8.06179L8.29473 5.01469ZM9 4.75535C9.25842 4.75535 9.50841 4.84728 9.70527 5.01469L7.1139 8.06179C7.64036 8.50951 8.30891 8.75535 9 8.75535V4.75535ZM9.70148 5.01148L3.76338 -0.013156L1.17959 3.04037L7.11769 8.065L9.70148 5.01148ZM2.88406 3.47059C2.79159 3.49008 2.69736 3.49994 2.60287 3.5L2.60026 -0.5C2.41834 -0.499881 2.23692 -0.480907 2.05891 -0.443378L2.88406 3.47059ZM3.96875 9.86719V8.8125H-0.03125V9.86719H3.96875ZM3.96875 8.25V7.6875H-0.03125V8.25H3.96875ZM3.96875 7.125V6.5625H-0.03125V7.125H3.96875ZM3.96875 6V2.13281H-0.03125V6H3.96875ZM3.96875 2.13467C3.96856 2.33536 3.92436 2.53357 3.83927 2.71533L0.216637 1.01929C0.0537234 1.36727 -0.0308926 1.74674 -0.0312491 2.13096L3.96875 2.13467ZM0.447811 3.09334C0.544355 3.21777 0.653511 3.33187 0.773529 3.43381L3.3631 0.385185C3.45337 0.461865 3.53547 0.547687 3.6081 0.641282L0.447811 3.09334ZM0.776427 3.43627L6.13811 7.97308L8.72188 4.91954L3.3602 0.382728L0.776427 3.43627ZM6.30538 4.79245L0.898596 8.46902L3.14782 11.7767L8.5546 8.10017L6.30538 4.79245ZM3.84983 9.30836C3.92819 9.48408 3.9687 9.67431 3.96875 9.86671L-0.0312499 9.86767C-0.0311617 10.2363 0.0464626 10.6007 0.19658 10.9374L3.84983 9.30836ZM15.3984 8.5H2.60156V12.5H15.3984V8.5ZM2.60862 8.50001C2.69285 8.50031 2.77688 8.50839 2.85963 8.52416L2.11104 12.4535C2.27043 12.4838 2.43227 12.4994 2.5945 12.5L2.60862 8.50001ZM3.60996 12.1427L9.00033 8.47721L6.75108 5.16951L1.36071 8.83497L3.60996 12.1427ZM6.58453 8.35073L6.75504 8.49487L9.33739 5.44013L9.16688 5.29599L6.58453 8.35073ZM6.75054 8.49106C7.37842 9.02502 8.17577 9.31822 9 9.31822L9 5.31822C9.12527 5.31822 9.24645 5.36278 9.34188 5.44394L6.75054 8.49106ZM9 9.31822C9.82423 9.31822 10.6216 9.02502 11.2495 8.49106L8.65812 5.44394C8.75355 5.36278 8.87473 5.31822 9 5.31822L9 9.31822ZM11.245 8.49487L11.4155 8.35073L8.83312 5.29599L8.66262 5.44013L11.245 8.49487ZM8.99967 8.47721L14.39 12.1427L16.6393 8.83497L11.2489 5.16951L8.99967 8.47721ZM15.1405 8.52414C15.2232 8.50839 15.3071 8.50031 15.3913 8.50001L15.4056 12.5C15.5678 12.4994 15.7295 12.4838 15.8889 12.4535L15.1405 8.52414ZM14.0313 9.86671C14.0313 9.67431 14.0718 9.48408 14.1502 9.30836L17.8034 10.9374C17.9535 10.6007 18.0312 10.2363 18.0312 9.86767L14.0313 9.86671ZM17.1014 8.46903L11.6946 4.79239L9.44538 8.10009L14.8522 11.7767L17.1014 8.46903ZM11.8619 7.97301L17.2667 3.39975L14.6829 0.346198L9.27812 4.91946L11.8619 7.97301ZM14.1547 2.70193C14.0734 2.52358 14.0314 2.3299 14.0313 2.13393L18.0312 2.1317C18.031 1.75642 17.9505 1.38554 17.7949 1.04401L14.1547 2.70193ZM14.0312 2.13281V9.86719H18.0312V2.13281H14.0312ZM-0.03125 6V6.5625H3.96875V6H-0.03125ZM-0.59375 6V6.5625H3.40625V6H-0.59375ZM-0.03125 7.125V7.6875H3.96875V7.125H-0.03125ZM-0.03125 8.25V8.8125H3.96875V8.25H-0.03125ZM-0.59375 8.25V8.8125H3.40625V8.25H-0.59375Z" fill="#E6E6E6" mask="url(#path-1-inside-1_4491_1439)"/>
</svg>
