<svg width="24" height="22" viewBox="0 0 24 22" fill="none" xmlns="http://www.w3.org/2000/svg">
<path d="M13.4057 2.74421L13.4058 2.74415C14.5803 1.55544 16.142 0.9 17.8052 0.9C19.4685 0.9 21.0311 1.55543 22.2057 2.74513C24.6237 5.1944 24.6237 9.17906 22.2057 11.6274C22.2057 11.6274 22.2057 11.6274 22.2057 11.6274L13.0411 20.9103L13.4057 2.74421ZM13.4057 2.74421L12.4596 3.70343L11.5134 2.74513C10.3389 1.55544 8.77626 0.9 7.11393 0.9C5.45065 0.9 3.88805 1.55543 2.71351 2.74513L2.71351 2.74513C0.295523 5.19439 0.295473 9.17905 2.71351 11.6264C2.71352 11.6265 2.71353 11.6265 2.71354 11.6265L11.878 20.9103L13.4057 2.74421ZM11.8773 5.43919C12.1849 5.75105 12.7314 5.75106 13.039 5.4392C13.039 5.4392 13.039 5.43919 13.039 5.43919L14.5663 3.89135C14.5663 3.89133 14.5663 3.89131 14.5663 3.89129C15.4343 3.01524 16.5838 2.53245 17.8052 2.53245C19.0277 2.53245 20.1771 3.01526 21.0431 3.89121C22.8359 5.70775 22.8359 8.66379 21.0431 10.4813C21.0431 10.4813 21.0431 10.4813 21.0431 10.4813L12.4596 19.1768L3.87511 10.4804L3.87509 10.4803C2.08232 8.66476 2.0823 5.70778 3.87511 3.89121L3.80394 3.82097L3.87505 3.89127C4.74102 3.01529 5.89142 2.53245 7.11297 2.53245C8.33547 2.53245 9.48487 3.01528 10.3499 3.89215L10.3499 3.89218L11.8773 5.43919ZM11.8773 5.43919L11.9485 5.36897M11.8773 5.43919L11.8774 5.43923L11.9485 5.36897M11.9485 5.36897L10.4211 3.82192L12.9678 5.36897C12.6994 5.64113 12.2169 5.64113 11.9485 5.36897ZM12.4596 21.1543C12.241 21.1543 12.0319 21.0673 11.8783 20.9106L12.4596 21.1543ZM12.4596 21.1543C12.6781 21.1543 12.8872 21.0673 13.0409 20.9106L12.4596 21.1543Z" fill="#515151" stroke="#515151" stroke-width="0.2"/>
</svg>
