<svg width="22" height="20" viewBox="0 0 22 20" fill="none" xmlns="http://www.w3.org/2000/svg">
<path d="M20.442 13.9436C19.9311 13.6924 17.3856 12.4989 16.9121 12.3373C16.4386 12.1668 16.0917 12.0861 15.7495 12.5886C15.4026 13.0867 14.4182 14.1949 14.1088 14.5314C13.8088 14.8635 13.504 14.9038 12.9931 14.6571C9.95535 13.2033 7.96303 12.0636 5.96132 8.77477C5.4316 7.89983 6.49105 7.96265 7.48018 6.07367C7.64894 5.74164 7.56456 5.45897 7.4333 5.20771C7.30204 4.95644 6.27072 2.52456 5.83944 1.53296C5.42222 0.56828 4.99094 0.702887 4.67686 0.684939C4.37684 0.666992 4.03462 0.666992 3.68772 0.666992C3.34083 0.666992 2.78297 0.792625 2.3095 1.28169C1.83603 1.77974 0.5 2.97773 0.5 5.40962C0.5 7.8415 2.35169 10.1971 2.60484 10.5291C2.86735 10.8612 6.24728 15.8506 11.4367 17.9998C14.7182 19.3548 16.0027 19.4715 17.6434 19.2382C18.6419 19.0946 20.6999 18.0446 21.1265 16.8825C21.553 15.7249 21.553 14.7333 21.4265 14.5269C21.2999 14.3071 20.953 14.1815 20.442 13.9436Z" fill="white"/>
</svg>
