<svg width="28" height="28" viewBox="0 0 28 28" fill="none" xmlns="http://www.w3.org/2000/svg">
<path d="M20.1924 16.8672C19.873 16.7031 18.2822 15.9238 17.9863 15.8184C17.6904 15.707 17.4736 15.6543 17.2598 15.9824C17.043 16.3076 16.4277 17.0313 16.2344 17.251C16.0469 17.4678 15.8564 17.4941 15.5371 17.333C13.6387 16.3838 12.3936 15.6397 11.1426 13.4922C10.8115 12.9209 11.4736 12.9619 12.0918 11.7285C12.1973 11.5117 12.1445 11.3271 12.0625 11.1631C11.9805 10.999 11.3359 9.41113 11.0664 8.76367C10.8057 8.13379 10.5361 8.22168 10.3398 8.20996C10.1523 8.19824 9.93848 8.19824 9.72168 8.19824C9.50488 8.19824 9.15625 8.28027 8.86035 8.59961C8.56445 8.92481 7.72949 9.70703 7.72949 11.2949C7.72949 12.8828 8.88672 14.4209 9.04492 14.6377C9.20898 14.8545 11.3213 18.1123 14.5645 19.5156C16.6152 20.4004 17.418 20.4766 18.4434 20.3242C19.0674 20.2305 20.3535 19.5449 20.6201 18.7861C20.8867 18.0303 20.8867 17.3828 20.8076 17.248C20.7285 17.1045 20.5117 17.0225 20.1924 16.8672Z" fill="white"/>
<path d="M26.3976 9.20605C25.7355 7.63281 24.7863 6.2207 23.5763 5.00781C22.3664 3.79785 20.9543 2.8457 19.3781 2.18652C17.7668 1.50977 16.0558 1.16699 14.2922 1.16699H14.2336C12.4582 1.17578 10.7384 1.52734 9.12126 2.21875C7.55974 2.88672 6.15935 3.83594 4.9611 5.0459C3.76286 6.25586 2.82243 7.66211 2.17204 9.22949C1.49821 10.8525 1.15837 12.5781 1.16716 14.3535C1.17595 16.3867 1.66228 18.4053 2.57341 20.21V24.6631C2.57341 25.4072 3.17692 26.0107 3.92107 26.0107H8.37712C10.1818 26.9219 12.2004 27.4082 14.2336 27.417H14.2951C16.05 27.417 17.7521 27.0772 19.3547 26.4121C20.922 25.7588 22.3312 24.8213 23.5383 23.623C24.7482 22.4248 25.7004 21.0244 26.3654 19.4629C27.0568 17.8457 27.4084 16.126 27.4172 14.3506C27.426 12.5664 27.0802 10.835 26.3976 9.20605ZM21.9709 22.0381C19.9172 24.0713 17.1926 25.1904 14.2922 25.1904H14.2424C12.4758 25.1816 10.7209 24.7422 9.17107 23.916L8.92497 23.7842H4.79997V19.6592L4.66814 19.4131C3.84196 17.8633 3.40251 16.1084 3.39372 14.3418C3.382 11.4209 4.49821 8.67871 6.54607 6.61328C8.59099 4.54785 11.3244 3.40527 14.2453 3.39355H14.2951C15.7599 3.39355 17.1808 3.67773 18.5197 4.24023C19.8263 4.78809 20.9982 5.57617 22.006 6.58398C23.0109 7.58887 23.8019 8.76367 24.3498 10.0703C24.9181 11.4238 25.2023 12.8594 25.1965 14.3418C25.1789 17.2598 24.0334 19.9932 21.9709 22.0381Z" fill="white"/>
</svg>
