<svg width="26" height="20" viewBox="0 0 26 20" fill="none" xmlns="http://www.w3.org/2000/svg">
<path d="M13.3873 0.721353C13.1734 0.493924 12.8267 0.493924 12.6127 0.721353L0.56144 13.5383C0.45837 13.6476 0.400442 13.796 0.400391 13.9508L0.400392 18.8658C0.400392 19.4064 0.400392 19.4495 0.94722 19.4495C1.23267 19.4495 1.10183 19.5125 1.33603 19.2783L12.9995 6.87261L24.663 19.2783C25.1437 19.759 24.9752 19.7418 25.4377 19.2793C25.6584 19.0586 25.5986 19.1466 25.5986 18.8658C25.5986 18.5851 25.5986 13.9508 25.5986 13.9508C25.5989 13.7962 25.5414 13.6478 25.4387 13.5383L13.3873 0.721353Z" fill="#2E2E2C"/>
</svg>
