<svg width="26" height="26" viewBox="0 0 26 26" fill="none" xmlns="http://www.w3.org/2000/svg">
<path d="M21.4451 0.333496H4.55621C2.22807 0.333496 0.333984 2.2929 0.333984 4.70131V15.1841C0.333984 17.5925 2.22807 19.5519 4.55621 19.5519H6.2451V24.7933C6.2451 25.1466 6.45072 25.465 6.76612 25.6004C6.87083 25.645 6.98061 25.6668 7.08954 25.6668C7.30952 25.6668 7.52485 25.5782 7.68656 25.4109L13.3502 19.5519H21.4451C23.7732 19.5519 25.6673 17.5925 25.6673 15.1841V4.70131C25.6673 2.2929 23.7732 0.333496 21.4451 0.333496ZM16.5895 10.6646H6.2451C5.77896 10.6646 5.40065 10.4249 5.40065 9.94269C5.40065 9.46048 5.77896 9.22082 6.2451 9.22082H16.5895C17.0557 9.22082 17.434 9.46048 17.434 9.94269C17.434 10.4249 17.0557 10.6646 16.5895 10.6646ZM19.7562 7.1703H6.2451C5.77896 7.1703 5.40065 6.93065 5.40065 6.44844C5.40065 5.96623 5.77896 5.72657 6.2451 5.72657H19.7562C20.2223 5.72657 20.6006 5.96623 20.6006 6.44844C20.6006 6.93065 20.2223 7.1703 19.7562 7.1703Z" fill="#2E2E2C"/>
</svg>
