<svg width="24" height="24" viewBox="0 0 24 24" fill="none" xmlns="http://www.w3.org/2000/svg">
<path d="M11.9495 21.8404C12.0842 21.9779 12.2676 22.0543 12.4596 22.0543C12.6516 22.0543 12.835 21.9779 12.9697 21.8404L22.1345 12.5571C24.5141 10.1478 24.5141 6.22572 22.1345 3.81539C20.9786 2.6446 19.4416 2 17.8052 2C16.1689 2 14.6328 2.6446 13.4769 3.81443L12.4596 4.8458L11.4422 3.81539C10.2864 2.6446 8.74934 2 7.11393 2C5.47756 2 3.94054 2.6446 2.78467 3.81539C0.405109 6.22572 0.405109 10.1478 2.78467 12.5562L11.9495 21.8404ZM3.80394 4.82097C4.68851 3.92617 5.86444 3.43245 7.11297 3.43245C8.36246 3.43245 9.53743 3.92617 10.4211 4.82192L11.9485 6.36897C12.2169 6.64113 12.6994 6.64113 12.9678 6.36897L14.4953 4.82097C15.3817 3.92617 16.5567 3.43245 17.8052 3.43245C19.0547 3.43245 20.2297 3.92617 21.1143 4.82097C22.9455 6.67647 22.9455 9.69511 21.1143 11.5516L12.4596 20.3191L3.80394 11.5506C1.9727 9.69607 1.9727 6.67647 3.80394 4.82097Z" fill="#515151"/>
</svg>
