<svg width="18" height="18" viewBox="0 0 18 18" fill="none" xmlns="http://www.w3.org/2000/svg">
<path d="M12.7268 0.75H5.27322C2.77911 0.75 0.75 2.77911 0.75 5.27326V12.7268C0.75 15.2209 2.77911 17.25 5.27322 17.25H12.7268C15.2209 17.25 17.25 15.2209 17.25 12.7268V5.27326C17.25 2.77911 15.2209 0.75 12.7268 0.75ZM16.2756 12.7268C16.2756 14.6836 14.6836 16.2756 12.7268 16.2756H5.27322C3.31639 16.2756 1.7244 14.6836 1.7244 12.7268V5.27326C1.7244 3.31639 3.31639 1.7244 5.27322 1.7244H12.7268C14.6836 1.7244 16.2756 3.31639 16.2756 5.27326V12.7268Z" fill="#E5E5E5"/>
<path d="M9.00022 4.47461C6.50479 4.47461 4.47461 6.50479 4.47461 9.00022C4.47461 11.4956 6.50475 13.5258 9.00022 13.5258C11.4956 13.5258 13.5259 11.4956 13.5259 9.00018C13.5259 6.50475 11.4956 4.47461 9.00022 4.47461ZM9.00022 12.5515C7.04207 12.5515 5.44898 10.9583 5.44898 9.00018C5.44898 7.04203 7.04207 5.44895 9.00022 5.44895C10.9584 5.44895 12.5515 7.04207 12.5515 9.00022C12.5515 10.9584 10.9584 12.5515 9.00022 12.5515Z" fill="#E5E5E5"/>
<path d="M13.7969 2.82861C13.0387 2.82861 12.4219 3.44546 12.4219 4.20362C12.4219 4.96178 13.0387 5.5786 13.7969 5.5786C14.555 5.5786 15.1718 4.96175 15.1718 4.20359C15.1718 3.44543 14.555 2.82861 13.7969 2.82861ZM13.7969 4.60416C13.576 4.60416 13.3963 4.42447 13.3963 4.20359C13.3963 3.98271 13.576 3.80301 13.7969 3.80301C14.0177 3.80301 14.1974 3.98274 14.1974 4.20359C14.1974 4.42444 14.0177 4.60416 13.7969 4.60416Z" fill="#E5E5E5"/>
</svg>
