<svg width="12" height="12" viewBox="0 0 12 12" fill="none" xmlns="http://www.w3.org/2000/svg">
<path d="M12.0009 6.11326C12.0009 6.6793 12.0009 6.50005 12.0009 7.13213H6.90656V12C6 12 6.45373 12 5.8877 12C5.32166 12 5.5 12 4.86883 12V7.13213L0 7.13214C0.000614911 6.5 0.000903845 6.6793 0.000903845 6.11326C0.000903845 5.54722 0 5.5 0 5.0944L4.86883 5.09439V0C5.5009 3.91849e-05 5.32166 4.99189e-05 5.8877 4.99189e-05C6.45373 4.99189e-05 6.5009 0 6.90656 0V5.09439H12.0009C12.0009 6.00005 12.0009 5.54722 12.0009 6.11326Z" fill="#1A1E3D"/>
</svg>
